<svg width="1024" height="1024" viewBox="0 0 1024 1024" fill="none" xmlns="http://www.w3.org/2000/svg">
  <rect x="64" y="64" width="896" height="896" rx="216" fill="#111827"/>
  <path d="M322 556C390 636 506 684 628 656C735 631 805 548 802 452C799 346 708 270 589 256C462 241 347 300 291 394" stroke="#7DD3FC" stroke-width="48" stroke-linecap="round"/>
  <path d="M376 694C421 759 502 792 582 768C647 749 694 704 710 646" stroke="#2DD4BF" stroke-width="48" stroke-linecap="round"/>
  <path d="M296 405C252 435 224 482 224 536C224 589 251 637 294 667" stroke="#2DD4BF" stroke-width="48" stroke-linecap="round"/>
  <circle cx="512" cy="512" r="118" fill="#F8FAFC"/>
  <circle cx="512" cy="512" r="58" fill="#0F766E"/>
  <circle cx="291" cy="394" r="68" fill="#111827" stroke="#FBBF24" stroke-width="40"/>
  <circle cx="589" cy="256" r="68" fill="#111827" stroke="#7DD3FC" stroke-width="40"/>
  <circle cx="710" cy="646" r="68" fill="#111827" stroke="#2DD4BF" stroke-width="40"/>
</svg>
